<svg xmlns="http://www.w3.org/2000/svg" viewBox="0 0 240 240" fill="none">
  <path fill="currentColor" d="M44 214
    C 40 190 46 150 56 122
    C 60 110 64 102 70 96
    L 74 36
    C 74 30 80 28 84 33
    L 100 90
    L 112 78
    C 114 75 118 75 120 78
    L 124 24
    C 124 18 131 17 135 22
    L 150 86
    C 156 92 168 100 184 110
    C 198 118 210 122 216 126
    C 220 128 220 133 216 136
    L 196 142
    C 190 150 176 160 158 168
    C 140 176 122 182 108 188
    C 100 191 96 198 95 206
    C 94 214 90 218 78 218
    L 52 218
    C 47 218 44 217 44 214 Z"/>
  <circle cx="178" cy="126" r="5.5" fill="#0C0A09"/>
</svg>
