<svg xmlns="http://www.w3.org/2000/svg" viewBox="0 0 96 96" fill="none">
  <defs>
    <linearGradient id="g" x1="0" y1="0" x2="1" y2="1">
      <stop offset="0" stop-color="#E3B341"/>
      <stop offset="1" stop-color="#8C6239"/>
    </linearGradient>
  </defs>
  <rect x="3" y="3" width="90" height="90" rx="20" fill="#14110F" stroke="url(#g)" stroke-width="2.5"/>
  <g transform="translate(20 18) scale(0.23)">
    <path fill="url(#g)" d="M44 214 C 40 190 46 150 56 122 C 60 110 64 102 70 96 L 74 36 C 74 30 80 28 84 33 L 100 90 L 112 78 C 114 75 118 75 120 78 L 124 24 C 124 18 131 17 135 22 L 150 86 C 156 92 168 100 184 110 C 198 118 210 122 216 126 C 220 128 220 133 216 136 L 196 142 C 190 150 176 160 158 168 C 140 176 122 182 108 188 C 100 191 96 198 95 206 C 94 214 90 218 78 218 L 52 218 C 47 218 44 217 44 214 Z"/>
  </g>
  <text x="48" y="84" text-anchor="middle" font-family="Montserrat, sans-serif" font-size="9" font-weight="700" fill="#A8A29E" letter-spacing="1">LOGO</text>
</svg>
